<svg width="101" height="102" viewBox="0 0 101 102" fill="none" xmlns="http://www.w3.org/2000/svg">
<g filter="url(#filter0_d_211_14)">
<path d="M75.6268 20.3797C74.7861 21.5271 73.1078 23.7152 68.9143 25.4596C64.6506 27.2282 57.649 28.5982 46.1038 27.7107C38.1957 27.1049 32.6946 29.8223 29.223 33.9783C25.825 38.0468 24.5369 43.3005 24.5682 47.6047C24.5748 48.5103 24.617 49.4762 24.6949 50.5023C28.9157 46.5937 34.8095 44.6079 40.6199 43.5388C48.4993 42.3442 56.9928 41.6623 62.4322 35.3043C62.9831 34.6606 64.0021 34.8901 63.9182 35.7358C63.524 39.6285 59.6511 42.9541 56.7699 44.9022C47.5422 51.1535 34.1834 44.6006 27.1229 57.2454C25.1701 60.4188 21.8247 67.9463 20.3994 74.2435C20.1341 75.4222 20.6752 76.6544 21.805 77.0568C22.0082 77.1357 22.2201 77.1899 22.4361 77.2181C23.4008 77.3092 24.3646 77.0359 25.141 76.451C25.9174 75.8661 26.4511 75.0113 26.6388 74.052C27.1195 70.2179 28.1332 66.4866 29.9552 63.0891C33.8131 66.8323 40.1221 69.2111 50.1577 69.138C57.4115 69.0852 63.1316 66.8953 67.5272 63.3448C71.8994 59.8102 74.8577 55.0182 76.7809 49.9179C80.6198 39.7726 80.5343 28.0288 79.1148 21.152L78.2225 16.8304L75.6268 20.3797Z" fill="black"/>
</g>
<defs>
<filter id="filter0_d_211_14" x="0.332886" y="0.830444" width="99.6804" height="100.405" filterUnits="userSpaceOnUse" color-interpolation-filters="sRGB">
<feFlood flood-opacity="0" result="BackgroundImageFix"/>
<feColorMatrix in="SourceAlpha" type="matrix" values="0 0 0 0 0 0 0 0 0 0 0 0 0 0 0 0 0 0 127 0" result="hardAlpha"/>
<feOffset dy="4"/>
<feGaussianBlur stdDeviation="10"/>
<feComposite in2="hardAlpha" operator="out"/>
<feColorMatrix type="matrix" values="0 0 0 0 0 0 0 0 0 0 0 0 0 0 0 0 0 0 0.25 0"/>
<feBlend mode="normal" in2="BackgroundImageFix" result="effect1_dropShadow_211_14"/>
<feBlend mode="normal" in="SourceGraphic" in2="effect1_dropShadow_211_14" result="shape"/>
</filter>
</defs>
</svg>
