<svg width="230" height="60" viewBox="0 0 230 60" fill="none" xmlns="http://www.w3.org/2000/svg">
<g clip-path="url(#clip0_211_9)">
<g filter="url(#filter0_d_211_9)">
<path d="M42.2901 14.1721C41.7726 14.8719 40.7396 16.2063 38.1585 17.2703C35.5342 18.349 31.2248 19.1847 24.119 18.644C19.2518 18.2748 15.8659 19.9322 13.729 22.4668C11.6375 24.948 10.8444 28.1519 10.8635 30.7767C10.8675 31.3289 10.8935 31.9179 10.9414 32.5437C13.5393 30.1599 17.1669 28.9487 20.7432 28.2965C25.5928 27.5677 30.8204 27.1515 34.1685 23.274C34.5076 22.8815 35.1347 23.0214 35.0831 23.5371C34.8403 25.911 32.4565 27.9392 30.683 29.1273C25.0034 32.9399 16.7816 28.9443 12.4355 36.6557C11.2334 38.591 9.17413 43.1816 8.29659 47.0218C8.13325 47.7406 8.46624 48.492 9.16158 48.7374C9.28669 48.7855 9.41709 48.8185 9.55002 48.8357C10.1438 48.8912 10.737 48.7245 11.2149 48.3678C11.6927 48.0111 12.0212 47.4898 12.1368 46.9048C12.4329 44.5666 13.0569 42.2912 14.1785 40.2192C16.5527 42.5017 20.4357 43.9521 26.6124 43.9071C31.077 43.8746 34.5977 42.539 37.3032 40.3736C39.9943 38.2179 41.8153 35.2955 42.9992 32.1851C45.3624 25.9981 45.3102 18.8365 44.4368 14.643L43.8878 12.0076L42.2901 14.1721Z" fill="black"/>
</g>
<path d="M62.0227 42V18.7273H71.2045C72.9621 18.7273 74.4621 19.0417 75.7045 19.6705C76.9545 20.2917 77.9053 21.1742 78.5568 22.3182C79.2159 23.4545 79.5455 24.7917 79.5455 26.3295C79.5455 27.875 79.2121 29.2045 78.5455 30.3182C77.8788 31.4242 76.9129 32.2727 75.6477 32.8636C74.3902 33.4545 72.8674 33.75 71.0795 33.75H64.9318V29.7955H70.2841C71.2235 29.7955 72.0038 29.6667 72.625 29.4091C73.2462 29.1515 73.7083 28.7652 74.0114 28.25C74.322 27.7348 74.4773 27.0947 74.4773 26.3295C74.4773 25.5568 74.322 24.9053 74.0114 24.375C73.7083 23.8447 73.2424 23.4432 72.6136 23.1705C71.9924 22.8902 71.2083 22.75 70.2614 22.75H66.9432V42H62.0227ZM74.5909 31.4091L80.375 42H74.9432L69.2841 31.4091H74.5909ZM90.6051 42.3409C88.8097 42.3409 87.2642 41.9773 85.9688 41.25C84.6809 40.5152 83.6884 39.4773 82.9915 38.1364C82.2945 36.7879 81.946 35.1932 81.946 33.3523C81.946 31.5568 82.2945 29.9811 82.9915 28.625C83.6884 27.2689 84.6695 26.2121 85.9347 25.4545C87.2074 24.697 88.6998 24.3182 90.4119 24.3182C91.5634 24.3182 92.6354 24.5038 93.6278 24.875C94.6278 25.2386 95.4991 25.7879 96.2415 26.5227C96.9915 27.2576 97.5748 28.1818 97.9915 29.2955C98.4081 30.4015 98.6165 31.697 98.6165 33.1818V34.5114H83.8778V31.5114H94.0597C94.0597 30.8144 93.9081 30.197 93.6051 29.6591C93.3021 29.1212 92.8816 28.7008 92.3438 28.3977C91.8134 28.0871 91.196 27.9318 90.4915 27.9318C89.7566 27.9318 89.1051 28.1023 88.5369 28.4432C87.9763 28.7765 87.5369 29.2273 87.2188 29.7955C86.9006 30.3561 86.7377 30.9811 86.7301 31.6705V34.5227C86.7301 35.3864 86.8892 36.1326 87.2074 36.7614C87.5331 37.3902 87.9915 37.875 88.5824 38.2159C89.1733 38.5568 89.8741 38.7273 90.6847 38.7273C91.2225 38.7273 91.715 38.6515 92.1619 38.5C92.6089 38.3485 92.9915 38.1212 93.3097 37.8182C93.6278 37.5152 93.8703 37.1439 94.0369 36.7045L98.5142 37C98.2869 38.0758 97.821 39.0152 97.1165 39.8182C96.4195 40.6136 95.518 41.2348 94.4119 41.6818C93.3134 42.1212 92.0445 42.3409 90.6051 42.3409ZM109.662 42.3409C107.874 42.3409 106.336 41.9621 105.048 41.2045C103.768 40.4394 102.783 39.3788 102.094 38.0227C101.412 36.6667 101.071 35.1061 101.071 33.3409C101.071 31.553 101.416 29.9848 102.105 28.6364C102.802 27.2803 103.791 26.2235 105.071 25.4659C106.351 24.7008 107.874 24.3182 109.639 24.3182C111.162 24.3182 112.495 24.5947 113.639 25.1477C114.783 25.7008 115.688 26.4773 116.355 27.4773C117.022 28.4773 117.389 29.6515 117.457 31H112.889C112.76 30.1288 112.42 29.428 111.866 28.8977C111.321 28.3598 110.605 28.0909 109.719 28.0909C108.969 28.0909 108.313 28.2955 107.753 28.7045C107.2 29.1061 106.768 29.6932 106.457 30.4659C106.147 31.2386 105.991 32.1742 105.991 33.2727C105.991 34.3864 106.143 35.3333 106.446 36.1136C106.757 36.8939 107.192 37.4886 107.753 37.8977C108.313 38.3068 108.969 38.5114 109.719 38.5114C110.272 38.5114 110.768 38.3977 111.207 38.1705C111.654 37.9432 112.022 37.6136 112.31 37.1818C112.605 36.7424 112.798 36.2159 112.889 35.6023H117.457C117.382 36.9356 117.018 38.1098 116.366 39.125C115.723 40.1326 114.832 40.9205 113.696 41.4886C112.56 42.0568 111.215 42.3409 109.662 42.3409ZM120.557 42V24.5455H125.398V42H120.557ZM122.989 22.2955C122.269 22.2955 121.652 22.0568 121.136 21.5795C120.629 21.0947 120.375 20.5152 120.375 19.8409C120.375 19.1742 120.629 18.6023 121.136 18.125C121.652 17.6402 122.269 17.3977 122.989 17.3977C123.708 17.3977 124.322 17.6402 124.83 18.125C125.345 18.6023 125.602 19.1742 125.602 19.8409C125.602 20.5152 125.345 21.0947 124.83 21.5795C124.322 22.0568 123.708 22.2955 122.989 22.2955ZM137.162 42.3409C135.374 42.3409 133.836 41.9621 132.548 41.2045C131.268 40.4394 130.283 39.3788 129.594 38.0227C128.912 36.6667 128.571 35.1061 128.571 33.3409C128.571 31.553 128.916 29.9848 129.605 28.6364C130.302 27.2803 131.291 26.2235 132.571 25.4659C133.851 24.7008 135.374 24.3182 137.139 24.3182C138.662 24.3182 139.995 24.5947 141.139 25.1477C142.283 25.7008 143.188 26.4773 143.855 27.4773C144.522 28.4773 144.889 29.6515 144.957 31H140.389C140.26 30.1288 139.92 29.428 139.366 28.8977C138.821 28.3598 138.105 28.0909 137.219 28.0909C136.469 28.0909 135.813 28.2955 135.253 28.7045C134.7 29.1061 134.268 29.6932 133.957 30.4659C133.647 31.2386 133.491 32.1742 133.491 33.2727C133.491 34.3864 133.643 35.3333 133.946 36.1136C134.257 36.8939 134.692 37.4886 135.253 37.8977C135.813 38.3068 136.469 38.5114 137.219 38.5114C137.772 38.5114 138.268 38.3977 138.707 38.1705C139.154 37.9432 139.522 37.6136 139.81 37.1818C140.105 36.7424 140.298 36.2159 140.389 35.6023H144.957C144.882 36.9356 144.518 38.1098 143.866 39.125C143.223 40.1326 142.332 40.9205 141.196 41.4886C140.06 42.0568 138.715 42.3409 137.162 42.3409ZM152.898 18.7273V42H148.057V18.7273H152.898ZM161.753 42.3295C160.639 42.3295 159.647 42.1364 158.776 41.75C157.904 41.3561 157.215 40.7765 156.707 40.0114C156.207 39.2386 155.957 38.2765 155.957 37.125C155.957 36.1553 156.135 35.3409 156.491 34.6818C156.848 34.0227 157.332 33.4924 157.946 33.0909C158.56 32.6894 159.257 32.3864 160.037 32.1818C160.825 31.9773 161.651 31.8333 162.514 31.75C163.529 31.6439 164.348 31.5455 164.969 31.4545C165.59 31.3561 166.041 31.2121 166.321 31.0227C166.601 30.8333 166.741 30.553 166.741 30.1818V30.1136C166.741 29.3939 166.514 28.8371 166.06 28.4432C165.613 28.0492 164.976 27.8523 164.151 27.8523C163.279 27.8523 162.586 28.0455 162.071 28.4318C161.556 28.8106 161.215 29.2879 161.048 29.8636L156.571 29.5C156.798 28.4394 157.245 27.5227 157.912 26.75C158.579 25.9697 159.438 25.3712 160.491 24.9545C161.552 24.5303 162.779 24.3182 164.173 24.3182C165.143 24.3182 166.071 24.4318 166.957 24.6591C167.851 24.8864 168.643 25.2386 169.332 25.7159C170.029 26.1932 170.579 26.8068 170.98 27.5568C171.382 28.2992 171.582 29.1894 171.582 30.2273V42H166.991V39.5795H166.855C166.575 40.125 166.2 40.6061 165.73 41.0227C165.26 41.4318 164.696 41.7538 164.037 41.9886C163.378 42.2159 162.616 42.3295 161.753 42.3295ZM163.139 38.9886C163.851 38.9886 164.48 38.8485 165.026 38.5682C165.571 38.2803 165.999 37.8939 166.31 37.4091C166.62 36.9242 166.776 36.375 166.776 35.7614V33.9091C166.624 34.0076 166.416 34.0985 166.151 34.1818C165.893 34.2576 165.601 34.3295 165.276 34.3977C164.95 34.4583 164.624 34.5152 164.298 34.5682C163.973 34.6136 163.677 34.6553 163.412 34.6932C162.844 34.7765 162.348 34.9091 161.923 35.0909C161.499 35.2727 161.17 35.5189 160.935 35.8295C160.7 36.1326 160.582 36.5114 160.582 36.9659C160.582 37.625 160.821 38.1288 161.298 38.4773C161.783 38.8182 162.397 38.9886 163.139 38.9886ZM192.153 18.7273H197.017V34.9545C197.017 36.4545 196.68 37.7576 196.006 38.8636C195.339 39.9697 194.411 40.822 193.222 41.4205C192.032 42.0189 190.65 42.3182 189.074 42.3182C187.672 42.3182 186.4 42.072 185.256 41.5795C184.119 41.0795 183.218 40.322 182.551 39.3068C181.884 38.2841 181.555 37 181.562 35.4545H186.46C186.475 36.0682 186.6 36.5947 186.835 37.0341C187.078 37.4659 187.407 37.7992 187.824 38.0341C188.248 38.2614 188.748 38.375 189.324 38.375C189.93 38.375 190.441 38.2462 190.858 37.9886C191.282 37.7235 191.604 37.3371 191.824 36.8295C192.044 36.322 192.153 35.697 192.153 34.9545V18.7273ZM205.972 42.3295C204.858 42.3295 203.866 42.1364 202.994 41.75C202.123 41.3561 201.434 40.7765 200.926 40.0114C200.426 39.2386 200.176 38.2765 200.176 37.125C200.176 36.1553 200.354 35.3409 200.71 34.6818C201.066 34.0227 201.551 33.4924 202.165 33.0909C202.778 32.6894 203.475 32.3864 204.256 32.1818C205.044 31.9773 205.869 31.8333 206.733 31.75C207.748 31.6439 208.566 31.5455 209.188 31.4545C209.809 31.3561 210.259 31.2121 210.54 31.0227C210.82 30.8333 210.96 30.553 210.96 30.1818V30.1136C210.96 29.3939 210.733 28.8371 210.278 28.4432C209.831 28.0492 209.195 27.8523 208.369 27.8523C207.498 27.8523 206.805 28.0455 206.29 28.4318C205.775 28.8106 205.434 29.2879 205.267 29.8636L200.79 29.5C201.017 28.4394 201.464 27.5227 202.131 26.75C202.797 25.9697 203.657 25.3712 204.71 24.9545C205.771 24.5303 206.998 24.3182 208.392 24.3182C209.362 24.3182 210.29 24.4318 211.176 24.6591C212.07 24.8864 212.862 25.2386 213.551 25.7159C214.248 26.1932 214.797 26.8068 215.199 27.5568C215.6 28.2992 215.801 29.1894 215.801 30.2273V42H211.21V39.5795H211.074C210.794 40.125 210.419 40.6061 209.949 41.0227C209.479 41.4318 208.915 41.7538 208.256 41.9886C207.597 42.2159 206.835 42.3295 205.972 42.3295ZM207.358 38.9886C208.07 38.9886 208.699 38.8485 209.244 38.5682C209.79 38.2803 210.218 37.8939 210.528 37.4091C210.839 36.9242 210.994 36.375 210.994 35.7614V33.9091C210.843 34.0076 210.634 34.0985 210.369 34.1818C210.112 34.2576 209.82 34.3295 209.494 34.3977C209.169 34.4583 208.843 34.5152 208.517 34.5682C208.191 34.6136 207.896 34.6553 207.631 34.6932C207.063 34.7765 206.566 34.9091 206.142 35.0909C205.718 35.2727 205.388 35.5189 205.153 35.8295C204.919 36.1326 204.801 36.5114 204.801 36.9659C204.801 37.625 205.04 38.1288 205.517 38.4773C206.002 38.8182 206.616 38.9886 207.358 38.9886ZM206.835 22.2955L209.244 17.125H213.722L210.256 22.2955H206.835Z" fill="black"/>
</g>
<defs>
<filter id="filter0_d_211_9" x="-11.7444" y="-3.99243" width="76.7339" height="76.8386" filterUnits="userSpaceOnUse" color-interpolation-filters="sRGB">
<feFlood flood-opacity="0" result="BackgroundImageFix"/>
<feColorMatrix in="SourceAlpha" type="matrix" values="0 0 0 0 0 0 0 0 0 0 0 0 0 0 0 0 0 0 127 0" result="hardAlpha"/>
<feOffset dy="4"/>
<feGaussianBlur stdDeviation="10"/>
<feComposite in2="hardAlpha" operator="out"/>
<feColorMatrix type="matrix" values="0 0 0 0 0 0 0 0 0 0 0 0 0 0 0 0 0 0 0.25 0"/>
<feBlend mode="normal" in2="BackgroundImageFix" result="effect1_dropShadow_211_9"/>
<feBlend mode="normal" in="SourceGraphic" in2="effect1_dropShadow_211_9" result="shape"/>
</filter>
<clipPath id="clip0_211_9">
<rect width="230" height="60" fill="white"/>
</clipPath>
</defs>
</svg>
